<svg width="16" height="17" viewBox="0 0 16 17" fill="none" xmlns="http://www.w3.org/2000/svg">
<path d="M6.71798 13.936C8.20851 13.9357 9.65609 13.4367 10.8302 12.5185L14.5218 16.21L15.7092 15.0226L12.0176 11.3311C12.9363 10.1568 13.4356 8.7089 13.436 7.21798C13.436 3.51385 10.4221 0.5 6.71798 0.5C3.01385 0.5 0 3.51385 0 7.21798C0 10.9221 3.01385 13.936 6.71798 13.936ZM6.71798 2.1795C9.49671 2.1795 11.7565 4.43926 11.7565 7.21798C11.7565 9.99671 9.49671 12.2565 6.71798 12.2565C3.93926 12.2565 1.6795 9.99671 1.6795 7.21798C1.6795 4.43926 3.93926 2.1795 6.71798 2.1795Z" fill="black" fill-opacity="0.62"/>
</svg>
