<svg width="19" height="16" viewBox="0 0 19 16" fill="none" xmlns="http://www.w3.org/2000/svg">
<path d="M7.57257 13.447C8.10005 13.604 8.64723 13.685 9.19757 13.6875C12.5954 13.6875 15.5058 10.4269 16.7189 8.84338C16.9063 8.60183 17.0079 8.30476 17.0078 7.99905C17.0076 7.69333 16.9057 7.39637 16.7181 7.155C16.2917 6.59884 15.8344 6.06716 15.3482 5.5625M10.9282 6.28319C10.7026 6.05379 10.4337 5.87134 10.1372 5.74636C9.84073 5.62137 9.52242 5.55633 9.20066 5.55498C8.87889 5.55364 8.56004 5.61601 8.2625 5.7385C7.96497 5.861 7.69462 6.04119 7.46707 6.26869C7.23952 6.49618 7.05927 6.76648 6.9367 7.06399C6.81414 7.3615 6.75169 7.68034 6.75296 8.0021C6.75424 8.32387 6.8192 8.64219 6.94411 8.93873C7.06903 9.23526 7.25142 9.50412 7.48076 9.72981L10.9282 6.28319ZM2.69757 14.5L15.6976 1.5L2.69757 14.5Z" stroke="#808080" stroke-width="2" stroke-linecap="round" stroke-linejoin="round"/>
<path d="M5.0319 12.1673C3.53284 11.1029 2.34659 9.71844 1.67627 8.84419C1.48883 8.60286 1.38708 8.30598 1.38708 8.00041C1.38708 7.69483 1.48883 7.39796 1.67627 7.15662C2.88934 5.57306 5.79971 2.3125 9.19759 2.3125C10.7218 2.3125 12.147 2.96819 13.3657 3.83513" stroke="#808080" stroke-width="2" stroke-linecap="round" stroke-linejoin="round"/>
</svg>
