<svg width="30" height="30" viewBox="0 0 30 30" fill="none" xmlns="http://www.w3.org/2000/svg">
<path d="M26.6875 15.8074V14.1818L28.7275 12.3968C29.1036 12.0653 29.3503 11.6116 29.4242 11.1158C29.4981 10.62 29.3943 10.1141 29.1313 9.68738L26.6238 5.43738C26.4375 5.11466 26.1695 4.84661 25.8469 4.66012C25.5243 4.47363 25.1583 4.37526 24.7856 4.37488C24.5547 4.37311 24.325 4.409 24.1056 4.48113L21.5238 5.35238C21.078 5.05617 20.613 4.78995 20.1319 4.55551L19.59 1.87801C19.4929 1.38884 19.2267 0.949426 18.8383 0.636691C18.4498 0.323957 17.9637 0.157827 17.465 0.167383H12.4925C11.9939 0.157827 11.5078 0.323957 11.1193 0.636691C10.7308 0.949426 10.4647 1.38884 10.3675 1.87801L9.82565 4.55551C9.34108 4.7899 8.87255 5.0561 8.42315 5.35238L5.8944 4.43863C5.67265 4.38086 5.44302 4.35933 5.2144 4.37488C4.84175 4.37526 4.47576 4.47363 4.15313 4.66012C3.83051 4.84661 3.5626 5.11466 3.37627 5.43738L0.868774 9.68738C0.620773 10.1134 0.528617 10.6125 0.608089 11.099C0.687561 11.5855 0.933718 12.0293 1.3044 12.3543L3.31252 14.1924V15.818L1.3044 17.603C0.923247 17.9303 0.670358 18.382 0.59061 18.878C0.510862 19.3739 0.609414 19.8821 0.868774 20.3124L3.37627 24.5624C3.5626 24.8851 3.83051 25.1532 4.15313 25.3396C4.47576 25.5261 4.84175 25.6245 5.2144 25.6249C5.44533 25.6267 5.67501 25.5908 5.8944 25.5186L8.47627 24.6474C8.92204 24.9436 9.38702 25.2098 9.86815 25.4443L10.41 28.1218C10.5072 28.6109 10.7733 29.0503 11.1618 29.3631C11.5503 29.6758 12.0364 29.8419 12.535 29.8324H17.55C18.0487 29.8419 18.5348 29.6758 18.9233 29.3631C19.3117 29.0503 19.5779 28.6109 19.675 28.1218L20.2169 25.4443C20.7015 25.2099 21.17 24.9437 21.6194 24.6474L24.1906 25.5186C24.41 25.5908 24.6397 25.6267 24.8706 25.6249C25.2433 25.6245 25.6093 25.5261 25.9319 25.3396C26.2545 25.1532 26.5225 24.8851 26.7088 24.5624L29.1313 20.3124C29.3793 19.8863 29.4714 19.3873 29.392 18.9008C29.3125 18.4143 29.0663 17.9705 28.6956 17.6455L26.6875 15.8074ZM24.7856 23.4999L21.1413 22.2674C20.2882 22.99 19.3131 23.5549 18.2619 23.9355L17.5075 27.7499H12.4925L11.7381 23.978C10.6952 23.5866 9.72547 23.0227 8.8694 22.3099L5.2144 23.4999L2.7069 19.2499L5.5969 16.6999C5.40044 15.6 5.40044 14.4741 5.5969 13.3743L2.7069 10.7499L5.2144 6.49988L8.85877 7.73238C9.71189 7.00977 10.6869 6.4449 11.7381 6.06426L12.4925 2.24988H17.5075L18.2619 6.02176C19.3048 6.41321 20.2746 6.9771 21.1306 7.68988L24.7856 6.49988L27.2931 10.7499L24.4031 13.2999C24.5996 14.3997 24.5996 15.5257 24.4031 16.6255L27.2931 19.2499L24.7856 23.4999Z" fill="black"/>
</svg>
