<svg width="13" height="30" viewBox="0 0 13 30" fill="none" xmlns="http://www.w3.org/2000/svg">
<path d="M9.47568 0C8.73285 0 8.02044 0.295087 7.49518 0.820347C6.96992 1.34561 6.67484 2.05801 6.67484 2.80084C6.67484 3.54367 6.96992 4.25608 7.49518 4.78134C8.02044 5.3066 8.73285 5.60168 9.47568 5.60168C10.2185 5.60168 10.9309 5.3066 11.4562 4.78134C11.9814 4.25608 12.2765 3.54367 12.2765 2.80084C12.2765 2.05801 11.9814 1.34561 11.4562 0.820347C10.9309 0.295087 10.2185 0 9.47568 0ZM8.80348 8.90668C6.58148 9.0934 0.512985 13.9295 0.512985 13.9295C0.13954 14.2096 0.251574 14.1909 0.550331 14.7138C0.849087 15.2179 0.811743 15.2552 1.16652 15.0125C1.53996 14.7698 2.15615 14.3777 3.18312 13.7428C7.14164 11.2034 3.81798 17.0665 2.1188 26.9441C1.4466 31.8362 5.85326 29.3155 6.99227 28.5686C8.1126 27.8404 11.1188 25.7677 11.4176 25.5623C11.8284 25.2823 11.5296 25.0582 11.2122 24.5914C10.9881 24.274 10.7641 24.498 10.7641 24.498C9.55037 25.3009 7.32837 26.9814 7.02961 25.9171C6.67484 24.8528 8.95286 17.5519 10.2039 12.5291C10.4093 11.3341 10.9695 8.71995 8.80348 8.90668Z" fill="white"/>
</svg>
